<svg width="316" height="244" viewBox="0 0 316 244" fill="none" xmlns="http://www.w3.org/2000/svg">
<path d="M0.399986 0C0.399986 0 -4.00001 57.1 44 66.8C92 76.5 140.5 70.2 132.4 120.9C123.8 174.6 154 220.9 196.5 206.4C244.1 190.3 315.1 243.2 315.1 243.2V0H0.399986Z" fill="#F1EEFF"/>
<path d="M31.9 0C31.9 0 27.5 57.1 75.5 66.8C123.5 76.5 181.7 53.8 173.6 104.5C165 158.2 188.6 204.2 231.1 189.7C278.6 173.5 315 203.3 315 203.3L315.1 0H31.9Z" fill="url(#paint0_linear)"/>
<path d="M118.5 140.7H115.8H115.7C115.7 140.7 115.5 140.5 115.1 140.1C114.9 139.9 114.7 139.7 114.5 139.5L114.3 139.3L135.1 128.6C135.1 128.4 135.1 128.2 135.1 127.9C135.1 127.3 135.2 126.8 135.4 126.3V123.1H140.3L155.9 104.3L157.8 104.8L158.6 103.9V103.4C158.4 102.9 158.3 102.3 158.3 101.8C158.3 101.2 158.4 100.7 158.6 100.2V97H163.6C166 97.2 167.9 99.3 167.9 101.8C167.9 102.4 167.8 103 167.6 103.6L179.1 113.9H183C183.1 113.9 183.3 113.9 183.4 113.9H183.5H183.7C184 113.9 184.2 114 184.5 114L198.9 95.6H201V94.5C200.8 94 200.7 93.4 200.7 92.9C200.7 92.3 200.8 91.8 201 91.3V88.1H205.5C206.1 88.1 206.7 88.2 207.3 88.4C207.9 88.6 208.4 89 208.8 89.4L223.3 84V83.9C223.3 82.3 224.1 80.8 225.5 79.9L225.6 79.7L238.5 51.1H239.6V50.1H243.5C246.1 50.1 248.2 52.2 248.3 54.7L260.7 63.2C260.8 63.1 260.9 63.1 261 63C261.4 62.8 261.9 62.6 262.4 62.5C262.7 62.5 262.9 62.4 263.2 62.4C263.9 62.4 264.5 62.5 265.1 62.8L285.1 44.4L286.5 45.1L288.3 43.6L278.1 32L306.4 26.4L306.7 25.5H311.4L311.3 25.8L300.5 57.5H295.8L297.1 53.8L290.3 46.1L288 48.1L267.7 65.9C267.9 66.4 267.9 66.9 267.9 67.4C267.9 70 265.8 72.2 263.1 72.2H258.6L258.8 71.9L259.5 70.6C259.2 70.2 258.9 69.8 258.7 69.4C258.6 69.2 258.5 69 258.5 68.8C258.4 68.4 258.3 67.9 258.3 67.4C258.3 66.9 258.4 66.4 258.5 65.9L247 58C246.1 59.1 244.7 59.8 243.3 59.8H241.9L231.4 80.7C232.3 81.6 232.7 82.8 232.7 84C232.7 85.3 232.2 86.5 231.3 87.4C230.4 88.3 229.2 88.8 227.9 88.8H223.4L223.5 87.4L210.1 92.4C210.1 92.6 210.1 92.8 210.1 93C210.1 95.6 208 97.8 205.3 97.8H203.6L187.6 117C187.8 117.6 187.9 118.1 187.9 118.7C187.9 121.2 186 123.2 183.6 123.5H183.4H178.6V120.3C178.4 119.8 178.3 119.2 178.3 118.7C178.3 118.4 178.3 118 178.4 117.7L176.8 116.2L176.1 116.6L176 116.5C176 116.5 175.7 116.2 175.2 115.8C170.1 111.3 166.5 108.1 164.5 106.3C164.2 106.4 163.8 106.5 163.5 106.5H163.2C163 106.5 162.9 106.5 162.7 106.5H160.3L143.9 125.5C144.3 126.2 144.5 127 144.5 127.9C144.5 130.4 142.6 132.4 140.2 132.7H140H135.2V132L118.5 140.7ZM116 140.3H118.5L135.8 131.4V132.3H140.1H140.2C142.5 132.2 144.3 130.2 144.3 127.9C144.3 127.1 144.1 126.3 143.7 125.6L143.6 125.5L160.3 106.2H162.9C163.1 106.2 163.2 106.2 163.3 106.2H163.4C163.8 106.2 164.2 106.1 164.6 106H164.7L164.8 106.1C166.2 107.3 169.1 110 175.6 115.7C175.9 116 176.2 116.2 176.3 116.3L177 115.9L179 117.7L178.9 117.9C178.8 118.2 178.8 118.5 178.8 118.8C178.8 119.3 178.9 119.8 179.1 120.3V123.1H183.4H183.5C185.8 123 187.6 121 187.6 118.7C187.6 118.1 187.5 117.5 187.3 117V116.9L203.7 97.4H205.6C208 97.4 210 95.4 210 93C210 92.8 210 92.5 209.9 92.3V92.1L224.2 86.7L224.1 88.3H228.2C229.4 88.3 230.5 87.8 231.3 87C232.1 86.2 232.6 85.1 232.6 83.9C232.6 82.7 232.1 81.6 231.3 80.8L231.2 80.7L231.3 80.6L241.9 59.4H243.6C245 59.4 246.3 58.7 247.1 57.6L247.2 57.4L259.2 65.6L259.1 65.7C258.9 66.2 258.8 66.7 258.8 67.2C258.8 67.6 258.9 68 259 68.5C259.1 68.7 259.1 68.9 259.2 69C259.4 69.4 259.7 69.8 260 70.2L260.1 70.3L259.4 71.6H263.2C265.6 71.6 267.6 69.6 267.6 67.2C267.6 66.7 267.5 66.2 267.4 65.7V65.6L270.8 62.6L287.9 47.6L290.5 45.3L297.7 53.5L296.5 56.9H300.4L311 25.7H307.1L306.8 26.6L278.9 32.1L288.9 43.5L286.7 45.5L285.3 44.8L265.3 63.2L265.2 63.1C264.6 62.8 264 62.7 263.3 62.7C263 62.7 262.8 62.7 262.5 62.8C262 62.9 261.6 63 261.2 63.2C261.1 63.3 260.9 63.4 260.8 63.4L260.7 63.5L247.7 55V54.9C247.7 52.5 245.7 50.6 243.3 50.6H239.8V51.6H238.6L225.7 80.3H225.6C224.3 81.1 223.6 82.5 223.6 84C223.6 84.1 223.6 84.1 223.6 84.2V84.3L208.6 89.9L208.5 89.8C208.1 89.4 207.6 89 207 88.8C206.5 88.6 205.9 88.5 205.4 88.5H201.3V91.3C201.1 91.8 201 92.3 201 92.8C201 93.3 201.1 93.8 201.3 94.3V95.9H199L198.5 96.6L184.5 114.4H184.4C184.1 114.3 183.7 114.2 183.4 114.2H183.3C183.2 114.2 183 114.2 182.9 114.2H178.9L178.8 114.1L167 103.5L167.1 103.4C167.3 102.8 167.5 102.3 167.5 101.7C167.5 99.4 165.7 97.5 163.4 97.3H163.2H159V100.1C158.8 100.6 158.7 101.1 158.7 101.6C158.7 102.1 158.8 102.6 159 103.1V103.8L157.9 105L156 104.5L155.7 104.9L140.5 123.3H140.3H140.2H140.1H135.8V126.1C135.6 126.6 135.5 127.1 135.5 127.6C135.5 127.8 135.5 128.1 135.6 128.3V128.4L115 139C115.1 139.1 115.3 139.3 115.4 139.4C115.7 140.1 115.9 140.2 116 140.3Z" fill="#C5B2FE"/>
<path d="M227.9 88.8H223.4L223.5 87.4L222.8 87.7L222.7 85.8L226.7 80.6H231.6L231.4 80.8C232.2 81.7 232.7 82.8 232.7 84.1C232.7 85.4 232.2 86.6 231.3 87.5C230.4 88.3 229.2 88.8 227.9 88.8ZM223.8 88.4H227.9C229.1 88.4 230.2 87.9 231 87.1C231.8 86.3 232.3 85.2 232.3 84C232.3 82.8 231.9 81.7 231 80.9H226.9L223.1 85.9L223.2 87.1L224 86.8L223.8 88.4Z" fill="#C5B2FE"/>
<path d="M289.5 42.6L288.3 43.7L286.3 45.5L285.9 45.9L268.3 61.3L263 65.9L259.2 69.2L259.1 69L258.6 68.7L254.4 65.8L242.7 57.8L239.5 55.6L226.9 80.8L224.7 85.2L223.1 85.8L220.1 86.9L205.7 92.3L203 93.3L201.2 95.4L200.8 95.9L199.6 97.3L183.1 116.9L179 121.8L178.9 121.7L174.4 117.7L161.9 106.4L161.2 105.8L158.8 103.7L158.6 103.5L157.3 105L156.5 105.9L139.5 125.6L136.5 129.1L136.3 129.2L132.4 131.2L115.3 140C115.1 139.8 114.9 139.6 114.7 139.4C114.3 139 113.8 138.5 113.3 137.9L131.1 128.7L134.7 126.8L135.6 125.8L137.4 123.7L137.7 123.3L154.6 103.7L158.3 99.4L158.7 99.8L162.9 103.6L175.8 115.2L176.7 116L178.6 117.7L181.1 114.7L181.7 114L197.3 95.4L201.1 90.9L201.2 90.8L204.3 89.6L207 88.6L219 84.1L222.6 82.8L224.3 79.4L238.4 51.3L256.1 63.6L259.1 65.6L261.4 63.6L262.3 62.8L265.8 59.8L284.2 43.7L286.6 41.6L287.8 40.5L289.5 42.6Z" fill="#C5B2FE"/>
<path d="M295.9 57.3L306.7 25.7L273.9 32.2L295.9 57.3Z" fill="#C5B2FE"/>
<path d="M140.2 127.9C140.2 130.4 138.1 132.5 135.6 132.5C133.1 132.5 131 130.4 131 127.9C131 125.4 133.1 123.3 135.6 123.3C138.1 123.3 140.2 125.4 140.2 127.9Z" fill="#C5B2FE"/>
<path d="M163.3 101.8C163.3 104.3 161.2 106.4 158.7 106.4C156.2 106.4 154.1 104.3 154.1 101.8C154.1 99.3 156.2 97.2 158.7 97.2C161.3 97.2 163.3 99.3 163.3 101.8Z" fill="#C5B2FE"/>
<path d="M183.4 118.7C183.4 121.2 181.3 123.3 178.8 123.3C176.3 123.3 174.2 121.2 174.2 118.7C174.2 116.2 176.3 114.1 178.8 114.1C181.3 114.1 183.4 116.2 183.4 118.7Z" fill="#C5B2FE"/>
<path d="M205.7 93C205.7 95.5 203.6 97.6 201.1 97.6C198.6 97.6 196.5 95.5 196.5 93C196.5 90.5 198.6 88.4 201.1 88.4C203.6 88.4 205.7 90.5 205.7 93Z" fill="#C5B2FE"/>
<path d="M228.2 84C228.2 86.5 226.1 88.6 223.6 88.6C221.1 88.6 219 86.5 219 84C219 81.5 221.1 79.4 223.6 79.4C226.2 79.4 228.2 81.5 228.2 84Z" fill="#C5B2FE"/>
<path d="M263.3 67.3C263.3 69.8 261.2 71.9 258.7 71.9C256.2 71.9 254.1 69.8 254.1 67.3C254.1 64.8 256.2 62.7 258.7 62.7C261.2 62.8 263.3 64.8 263.3 67.3Z" fill="#C5B2FE"/>
<path d="M244.1 55C244.1 57.5 242 59.6 239.5 59.6C237 59.6 234.9 57.5 234.9 55C234.9 52.5 237 50.4 239.5 50.4C242 50.4 244.1 52.5 244.1 55Z" fill="#C5B2FE"/>
<path d="M223.5 120.1L167.4 123.9V44.5L223.5 53.1V120.1Z" fill="#7E2D98"/>
<path d="M169.8 44.5V123.9L171.8 123.8L174.9 123.6L193.5 122.3L208 121.3H208.9L212.4 121L217.7 120.7H217.9L220.8 120.5L225.1 120.2L225.9 120.1V53.1L169.8 44.5Z" fill="white"/>
<path d="M216.2 84.2L215.4 86.1C215.2 86 214.9 85.9 214.6 85.9C213.6 85.8 212.7 86.5 212.5 87.4L210.4 86.8C210.6 86 210.9 85.3 211.5 84.8C212.9 83.7 214.7 83.5 216.2 84.2Z" fill="#4619D9"/>
<path d="M214.7 90.2C215.9 90.3 216.8 89.4 216.8 88.2C216.8 87.6 216.5 87 216.1 86.6L217.5 85.2L217.6 85.3C219.2 87.1 219.2 89.8 217.6 91.3C216 92.9 213.3 92.7 211.7 90.9C211.4 90.5 211.1 90.1 210.9 89.7L212.8 88.9C213.1 89.6 213.9 90.2 214.7 90.2Z" fill="#FF8D00"/>
<path d="M217.5 85.2L216.1 86.6C215.9 86.4 215.7 86.2 215.4 86.1L216.2 84.2C216.7 84.5 217.1 84.8 217.5 85.2Z" fill="#FF1D52"/>
<path d="M212.6 87.5C212.6 87.6 212.6 87.8 212.6 88C212.6 88.3 212.7 88.7 212.8 89L210.9 89.8C210.5 88.9 210.4 87.9 210.6 87L212.6 87.5Z" fill="#00E18E"/>
<path d="M196 88C196.7 88.8 197.8 88.9 198.6 88.4L199.7 90.2C199.1 90.6 198.3 90.8 197.5 90.8C195.8 90.8 194.3 89.6 193.6 88.1L195.5 87.3C195.7 87.6 195.8 87.8 196 88Z" fill="#FF8D00"/>
<path d="M197.5 82.3C199.8 82.4 201.7 84.4 201.7 86.7C201.7 87.2 201.6 87.6 201.5 88.1L199.5 87.4C199.7 86.7 199.6 85.8 199 85.2C198.2 84.3 196.9 84.3 196 85.1C195.6 85.5 195.4 86.1 195.4 86.7H193.3V86.6C193.3 84 195.2 82.2 197.5 82.3Z" fill="#4619D9"/>
<path d="M199.5 87.3L201.5 88C201.2 88.9 200.6 89.7 199.8 90.2L198.7 88.4C198.8 88.3 198.9 88.2 199 88.1C199.2 87.9 199.4 87.6 199.5 87.3Z" fill="#FF1D52"/>
<path d="M195.6 87.4L193.7 88.2C193.5 87.7 193.4 87.2 193.4 86.6H195.5C195.4 86.8 195.5 87.1 195.6 87.4Z" fill="#00E18E"/>
<path d="M179.6 81.3C180.1 81.3 180.5 81.4 180.9 81.6L180.2 83.6C179.5 83.3 178.6 83.4 178 84C177.2 84.8 177.2 86.2 178 87C178.4 87.5 179 87.7 179.6 87.7L179.7 89.8H179.6C177.3 89.7 175.4 87.7 175.4 85.3C175.4 83 177.3 81.2 179.6 81.3Z" fill="#4619D9"/>
<path d="M181.4 84.6L183.1 83.6C183.5 84.3 183.8 85.1 183.8 85.9C183.8 87.7 182.8 89.1 181.3 89.7L180.5 87.7C180.7 87.6 181 87.5 181.2 87.3C181.8 86.5 181.9 85.4 181.4 84.6Z" fill="#FF8D00"/>
<path d="M183.1 83.5L181.4 84.5C181.3 84.4 181.2 84.2 181.1 84.1C180.9 83.8 180.6 83.7 180.3 83.5L181 81.5C181.9 82 182.6 82.7 183.1 83.5Z" fill="#FF1D52"/>
<path d="M181.3 89.6C180.8 89.8 180.3 89.9 179.8 89.9L179.7 87.8C180 87.8 180.2 87.8 180.5 87.7L181.3 89.6Z" fill="#00E18E"/>
<path d="M215.6 68.4L215.3 78.9L210.7 78.5L210.9 67.8L215.6 68.4Z" fill="#FF1D52"/>
<path d="M207.7 63.3L207.4 78.2L202.9 77.8L203.2 62.8L207.7 63.3Z" fill="#4619D9"/>
<path d="M200 64.9L199.8 77.5L195.5 77.1L195.7 64.4L200 64.9Z" fill="#FF1D52"/>
<path d="M192.7 57.3L192.6 76.9L188.5 76.5L188.6 56.8L192.7 57.3Z" fill="#4619D9"/>
<path d="M185.6 76.2L181.7 75.9V51.7L185.7 52.3L185.6 76.2Z" fill="#FF1D52"/>
<path d="M169.8 44.5H167.4V123.9H169.8V44.5Z" fill="#9872FF"/>
<path d="M169.8 44.5V47.8L225.9 55.7V53.1L169.8 44.5Z" fill="#192344"/>
<path d="M169.8 44.5H167.4V47.8H169.8V44.5Z" fill="#0B1028"/>
<path d="M173.6 45.7L171.9 47.2C171.8 47.3 171.8 47.4 171.9 47.4C172 47.5 172.1 47.5 172.1 47.4L173.8 45.9C173.9 45.8 173.9 45.7 173.8 45.7C173.7 45.7 173.6 45.7 173.6 45.7Z" fill="white"/>
<path d="M172.1 45.5C172 45.4 171.9 45.4 171.9 45.5C171.8 45.6 171.8 45.7 171.9 45.7L173.6 47.7C173.7 47.8 173.8 47.8 173.8 47.7C173.9 47.6 173.9 47.5 173.8 47.5L172.1 45.5Z" fill="white"/>
<path d="M175.1 46.9C175.1 47.6 175.6 48.2 176.3 48.2C176.9 48.3 177.4 47.8 177.4 47.2C177.4 46.5 176.9 45.9 176.2 45.9C175.6 45.8 175 46.3 175.1 46.9ZM175.3 47C175.3 46.5 175.7 46.1 176.2 46.2C176.7 46.3 177.1 46.7 177.1 47.2C177.1 47.7 176.7 48.1 176.2 48C175.7 47.9 175.3 47.5 175.3 47Z" fill="white"/>
<path d="M180.6 48.5L178.5 48.2C178.4 48.2 178.4 48.2 178.4 48.3C178.4 48.4 178.5 48.4 178.5 48.5L180.6 48.8C180.7 48.8 180.7 48.8 180.7 48.7C180.8 48.5 180.7 48.5 180.6 48.5Z" fill="white"/>
<path d="M174.9 105.4V106C175 106 175.2 106.1 175.3 106.1L194 106C193.9 105.8 193.7 105.7 193.6 105.5L175.4 105.6C175.2 105.5 175 105.5 174.9 105.4ZM173.6 95.6V104.5C173.6 105.2 174.1 105.8 174.8 106C174.9 106 175.1 106.1 175.2 106.1L193.9 106L206 105.9H206.8H211.2L221 105.8C221 105.8 221 105.8 221.1 105.8C221.4 105.8 221.6 105.7 221.8 105.4C222 105.2 222.1 104.8 222.1 104.5V97.4C222.1 96.7 221.6 96.1 221 96.1L214.8 95.8L207.2 95.5H206.5L192.6 94.9L188.6 94.7L175.3 94.1C175.1 94.1 175 94.1 174.9 94.1C174.6 94.2 174.3 94.3 174.1 94.5C173.8 94.8 173.6 95.2 173.6 95.6ZM174.2 95.6C174.2 95.4 174.3 95.1 174.5 94.9C174.6 94.8 174.7 94.7 174.9 94.7C175 94.7 175.1 94.6 175.2 94.6H175.3L188.7 95.2L192.7 95.4L206.4 96H206.9H207.1L215.1 96.3L221 96.5C221.4 96.5 221.7 96.9 221.7 97.3V104.4C221.7 104.6 221.6 104.8 221.5 105C221.4 105.1 221.2 105.2 221 105.2H210.5H206.7H205.9L193.4 105.3L175.2 105.4C175 105.4 174.9 105.4 174.7 105.3C174.3 105.1 174 104.8 174 104.4L174.2 95.6ZM174.9 105.4V106C175 106 175.2 106.1 175.3 106.1L194 106C193.9 105.8 193.7 105.7 193.6 105.5L175.4 105.6C175.2 105.5 175 105.5 174.9 105.4ZM174.9 105.4V106C175 106 175.2 106.1 175.3 106.1L194 106C193.9 105.8 193.7 105.7 193.6 105.5L175.4 105.6C175.2 105.5 175 105.5 174.9 105.4Z" fill="#9872FF"/>
<path fill-rule="evenodd" clip-rule="evenodd" d="M187.7 97.5L180.4 97.1V95.8L187.7 96.2V97.5Z" fill="#9872FF"/>
<path fill-rule="evenodd" clip-rule="evenodd" d="M191.2 99.8L180.4 99.4V98.1L191.2 98.5V99.8Z" fill="#9872FF"/>
<path fill-rule="evenodd" clip-rule="evenodd" d="M199.5 98L190.3 97.6V96.3L199.5 96.8V98Z" fill="#9872FF"/>
<path fill-rule="evenodd" clip-rule="evenodd" d="M205.3 98.3L200.8 98.1V96.9L205.3 97.1V98.3Z" fill="#9872FF"/>
<path fill-rule="evenodd" clip-rule="evenodd" d="M211.8 98.6L206.7 98.3V97.2L211.8 97.5V98.6Z" fill="#9872FF"/>
<path fill-rule="evenodd" clip-rule="evenodd" d="M209.2 100.3L199.7 100V98.9L209.2 99.3V100.3Z" fill="#9872FF"/>
<path fill-rule="evenodd" clip-rule="evenodd" d="M187.7 100.6V101.8L180.4 101.7V100.4L187.7 100.6Z" fill="#9872FF"/>
<path fill-rule="evenodd" clip-rule="evenodd" d="M200.7 104.1L180.4 104V102.7L200.7 103V104.1Z" fill="#9872FF"/>
<path fill-rule="evenodd" clip-rule="evenodd" d="M202 102.1L190.3 101.9V100.7L202 101V102.1Z" fill="#9872FF"/>
<path fill-rule="evenodd" clip-rule="evenodd" d="M209.2 102.3L203.7 102.1V101L209.2 101.2V102.3Z" fill="#9872FF"/>
<path fill-rule="evenodd" clip-rule="evenodd" d="M217.1 101.4V102.4L211 102.3V101.2L217.1 101.4Z" fill="#9872FF"/>
<path fill-rule="evenodd" clip-rule="evenodd" d="M211.8 103.1V104.2L202.4 104.1V103L211.8 103.1Z" fill="#9872FF"/>
<path fill-rule="evenodd" clip-rule="evenodd" d="M197.7 100L192.9 99.8V98.6L197.7 98.8V100Z" fill="#9872FF"/>
<path d="M173.7 110.7V119.6C173.7 120.3 174.2 120.9 174.9 121C175 121 175.2 121 175.4 121L194 119.7L208 118.8L208.8 118.7L212.9 118.4L215.2 118.2L221.1 117.8C221.4 117.8 221.7 117.6 221.9 117.4C222.1 117.1 222.2 116.8 222.2 116.5V111.9V109.4C222.2 108.7 221.7 108.2 221.1 108.2L214.6 108.3L206.9 108.4H206.1L196.6 108.6L175.3 109C175.1 109 175 109 174.8 109.1C174.5 109.2 174.3 109.3 174.1 109.5C173.8 109.9 173.7 110.3 173.7 110.7ZM174.2 110.7C174.2 110.4 174.3 110.2 174.5 110C174.6 109.9 174.7 109.8 174.9 109.7C175 109.6 175.2 109.6 175.3 109.6C175.3 109.6 175.3 109.6 175.4 109.6L197.3 109.2L206.2 109H207L215 108.8L221.2 108.7C221.6 108.7 221.9 109 221.9 109.5V112.6V116.6C221.9 116.8 221.8 117 221.7 117.2C221.6 117.3 221.4 117.4 221.2 117.4L214.8 117.8L213 117.9L208.8 118.2L207.3 118.3L194 119.2L175.3 120.4C175.1 120.4 175 120.4 174.8 120.3C174.4 120.2 174.2 119.8 174.2 119.4V110.7Z" fill="#9872FF"/>
<path fill-rule="evenodd" clip-rule="evenodd" d="M218.4 111.9V112.9L213.7 113.1V112L218.4 111.9Z" fill="#9872FF"/>
<path fill-rule="evenodd" clip-rule="evenodd" d="M211.8 111.4L197.9 111.8V110.7L211.8 110.4V111.4Z" fill="#9872FF"/>
<path fill-rule="evenodd" clip-rule="evenodd" d="M193.7 111.9L183.1 112.2V111L193.7 110.7V111.9Z" fill="#9872FF"/>
<path fill-rule="evenodd" clip-rule="evenodd" d="M195.7 113.7L184.2 114.2V113L195.7 112.6V113.7Z" fill="#9872FF"/>
<path fill-rule="evenodd" clip-rule="evenodd" d="M192.3 115.8L184.2 116.3V115.1L192.3 114.7V115.8Z" fill="#9872FF"/>
<path fill-rule="evenodd" clip-rule="evenodd" d="M205.6 113.3L197.9 113.6V112.5L205.6 112.2V113.3Z" fill="#9872FF"/>
<path fill-rule="evenodd" clip-rule="evenodd" d="M207.5 115L194.1 115.7V114.6L207.5 114V115Z" fill="#9872FF"/>
<path fill-rule="evenodd" clip-rule="evenodd" d="M212 114.8L208.7 115V113.9L212 113.8V114.8Z" fill="#9872FF"/>
<path fill-rule="evenodd" clip-rule="evenodd" d="M197.8 117.4L190.6 117.9V116.8L197.8 116.4V117.4Z" fill="#9872FF"/>
<path fill-rule="evenodd" clip-rule="evenodd" d="M210.6 116.6L198.9 117.4V116.3L210.6 115.6V116.6Z" fill="#9872FF"/>
<path fill-rule="evenodd" clip-rule="evenodd" d="M215.2 116.4L211.8 116.6V115.6L215.2 115.4V116.4Z" fill="#9872FF"/>
<path d="M272.5 143.8L283.1 185.9H284.1L273.5 143.8H272.5Z" fill="#0B1028"/>
<path d="M285.1 143.8L295.8 185.9H296.7L286.1 143.8H285.1Z" fill="#0B1028"/>
<path d="M274.5 149.5L274.6 150.3H287.2L287 149.5H274.5Z" fill="#0B1028"/>
<path d="M276.3 156.5L276.4 157.4H288.9L288.8 156.5H276.3Z" fill="#0B1028"/>
<path d="M278.1 163.6L278.2 164.4H290.7L290.6 163.6H278.1Z" fill="#0B1028"/>
<path d="M279.9 170.6L280 171.5H292.5L292.4 170.6H279.9Z" fill="#0B1028"/>
<path d="M281.6 177.7L281.8 178.6H294.3L294.1 177.7H281.6Z" fill="#0B1028"/>
<path d="M252.1 185.9H253L263.7 143.8H262.7L252.1 185.9Z" fill="#192344"/>
<path d="M264.7 185.9H265.7L276.3 143.8H275.3L264.7 185.9Z" fill="#192344"/>
<path d="M254.4 179H266.9L267 178.2H254.5L254.4 179Z" fill="#192344"/>
<path d="M256.2 172H268.7L268.8 171.1H256.3L256.2 172Z" fill="#192344"/>
<path d="M258 164.9H270.5L270.6 164.1H258.1L258 164.9Z" fill="#192344"/>
<path d="M259.7 157.9H272.2L272.4 157H259.9L259.7 157.9Z" fill="#192344"/>
<path d="M261.5 150.8H274L274.1 149.9H261.6L261.5 150.8Z" fill="#192344"/>
<path d="M288.9 141.7H277.3V143.8H288.9V141.7Z" fill="#0B1028"/>
<path d="M277.3 141.7H258.9V143.8H277.3V141.7Z" fill="#192344"/>
<path d="M240.4 102.3C240.3 102.1 240.3 101.8 240.1 102C239.9 102.1 240 102.9 240.1 103C240.5 103.3 240.6 103.1 241 103.4C240.7 103 240.5 102.6 240.4 102.3Z" fill="#FF9873"/>
<path d="M253.7 109.6C253.6 109.5 253.5 109.4 253.4 109.3C251.4 108.1 243.1 105 241.1 103.5C240.7 104.2 240.4 104.8 240 105.2C243.2 107.7 252 113.1 253.3 112.2C254.5 111.2 254.2 110.2 253.7 109.6Z" fill="#FF3B79"/>
<path d="M238 103.3C238.8 104.1 239.8 104.9 240.1 105.2C240.4 104.9 241.3 103.6 241.3 103.6C240.9 103.3 240.6 102.9 240.3 102.6C239.9 102.2 238.9 101.5 238.8 101.4C238.6 101.3 238.1 100.9 237.9 100.8C237.7 100.7 237.5 100.7 237.3 100.9C237.2 101 237.2 101.2 237.7 101.6C238.3 102 238.6 102.3 238.6 102.3C238.6 102.3 238.2 102.4 238.3 102.7C238.3 102.7 237.9 102.7 238 103.1C237.9 103 237.7 103.1 238 103.3Z" fill="#FF9873"/>
<path d="M265.6 105.7C263.4 105.9 256.8 108.2 253.4 108.7C249.2 109.3 251.2 112 252.5 112.2C256 112.8 265.8 112.7 266.3 110.9C266.5 110.2 266 105.6 265.6 105.7Z" fill="#FF3B79"/>
<path d="M266.1 105.4C266 105.3 265.8 105.2 265.6 105.2C264.5 105.3 262.2 105.9 259.9 106.6C257.5 107.3 252.8 108.3 252.6 108.4C251.7 108 242.6 104.1 241.5 103.2L239.8 105.6C242.6 107.8 249.8 112.3 252.5 112.7C255.3 113.2 266.2 113.5 266.8 111.1C267 110.2 266.6 106 266.1 105.4Z" fill="#F47500"/>
<path d="M237.5 160.4C237.7 160 238 159.2 238 159.2L240.2 159.8C240.2 159.8 240.3 160.3 240.3 160.9C240.3 161.5 241.1 162.3 240.5 163C240.3 163.2 239.1 163.1 238.5 163.1C238 163.1 236.4 163.2 235.6 163.2C234.7 163.2 233.5 162.9 233.5 162.4C233.4 161.3 237.1 161.1 237.5 160.4Z" fill="#001A37"/>
<path d="M238 159.1L240.3 159.2C240.3 159.2 240.3 160.3 240.3 160.8C240.3 160.8 238.1 161.1 237.8 160.8C237.4 160.5 237.6 160.3 237.6 160.3C237.9 159.8 238 159.1 238 159.1Z" fill="#FF9873"/>
<path d="M252.2 137.8C246.2 150 240.5 160.7 240.5 160.7C239.4 160.5 238.2 160.2 237.7 159.5C237.7 159.5 240.9 148.4 245.2 133.5C246.8 127.4 256.1 129.8 252.2 137.8Z" fill="#00E18E"/>
<path d="M246.6 137.6C254.7 134 274.8 128.8 278.3 129.3C282.1 129.8 282.5 138.8 275.9 140.8C268.4 143.2 257.4 145.5 248 144.1C244.5 143.6 243.2 139.2 246.6 137.6Z" fill="#00C675"/>
<path d="M253.6 169.3C253.6 168.8 253.6 168 253.6 168L255.8 167.6C255.8 167.6 256.1 168.1 256.3 168.6C256.6 169.2 257.6 169.5 257.4 170.4C257.3 170.7 256.2 171 255.6 171.3C255.1 171.5 253.7 172.2 253 172.6C252.2 173 250.9 173.2 250.7 172.8C250.2 171.8 253.5 170.1 253.6 169.3Z" fill="#001A37"/>
<path d="M253.4 167.9L255.5 167.1C255.5 167.1 256 168.1 256.2 168.5C256.2 168.5 254.3 169.6 253.9 169.6C253.4 169.5 253.5 169.2 253.5 169.2C253.6 168.6 253.4 167.9 253.4 167.9Z" fill="#FF9873"/>
<path d="M253.1 142.5C255 156 256.3 167.5 256.3 167.5C255.6 168.3 254.2 168.8 253.3 168.5C253.3 168.5 249.7 157.5 244.8 142.8C242.8 136.9 251.9 133.6 253.1 142.5Z" fill="#00C675"/>
<path d="M248.1 130.3C256.7 128.2 277.4 126.9 280.8 127.9C284.5 129 283.7 142.4 275.9 142C268.1 141.6 257.5 139.3 248.5 136.2C245.2 135.1 244.4 131.2 248.1 130.3Z" fill="#00E18E"/>
<path d="M244.6 127.2C245 127.3 245.5 127.4 245.9 127.3C245.4 127.4 245.5 127.7 245.1 127.9C244.9 127.9 244.1 127.5 244.2 127.3C244.1 127 244.3 127.2 244.6 127.2Z" fill="#FF3B78"/>
<path d="M268.4 98.9C268.4 99.9 269 102.5 269.4 103C268.8 104.9 265.9 105.2 265.6 104.2C265.9 103 265.2 101 265.1 100.8C265.8 100.8 268.2 99.1 268.4 98.9Z" fill="#FF9873"/>
<path d="M266.8 95.7C268.2 96.1 268.8 97.4 268.5 98.8L268.1 100.2C267.8 101.2 265.8 102.5 265 102C263 101 263.5 97 263.7 96.5C264.2 95.4 265.5 95.3 266.8 95.7Z" fill="#FF9873"/>
<path d="M262.2 111.2C261.9 109.2 261.7 106.6 263.4 105.3C263.8 105 265.6 104.2 265.6 104.2C265.6 104.2 266.3 104.9 267 104.7C268 104.5 269.4 102.9 269.4 102.9C269.4 102.9 271.7 103.1 272.5 103.3C279.2 105.1 283.6 118.2 283.6 137.4C283.3 137.5 282.4 137.1 281.6 136.4L280.6 129.7L280 133.3C274.6 131 266.8 132.9 262 128.2C262.6 118.1 262.3 112.4 262.2 111.2Z" fill="#FF8D00"/>
<path d="M267 104.8C268 104.6 269.4 103 269.4 103C269.4 103 270.6 103.1 271 103.1C271.8 103.2 272.5 103.4 272.5 103.4C269.8 105.2 265.9 109.6 265.9 109.6C265.9 109.6 264.3 107.2 263.9 105.1C264.1 105 265.7 104.3 265.7 104.3C265.7 104.3 266.3 104.9 267 104.8Z" fill="white"/>
<path d="M263.9 94.6C265.8 92.7 268.8 93.1 269.9 95C271.6 97.9 269.1 99.4 268.4 101.4C268.4 101.4 268.8 98.2 268.3 96.9C264.2 97.5 262.6 96.4 261.9 95.1C261.8 95.2 262.7 95.7 263.9 94.6Z" fill="#192344"/>
<path d="M268.8 98.3C269.1 98.4 269.3 99 269.1 99.4C269 99.7 268.4 100.1 268 100C268 99.6 268 98.8 268.1 98.3C268.4 98.2 268.7 98.2 268.8 98.3Z" fill="#FF9873"/>
<path d="M270.3 129.4C270.3 129.7 270 130 269.7 130H255.2C254.9 130 254.6 129.7 254.6 129.4H270.3Z" fill="#192344"/>
<path d="M253 116.6L256 129.2C256 129.4 256 130 255.3 130L243 129.8V115.7H251.9C252.4 115.7 252.9 116.1 253 116.6Z" fill="#192344"/>
<path d="M236.3 115.7H252C252.2 115.7 252.3 115.8 252.3 116L255.5 129.5C255.6 129.7 255.4 130 255.2 130H240.6C239.8 130 239.1 129.5 238.9 128.7L235.9 116.2C235.9 115.9 236.1 115.7 236.3 115.7Z" fill="#4619D9"/>
<path opacity="0.18" d="M250.7 129.2H254.7L253.9 125.5L250.7 129.2Z" fill="white"/>
<path opacity="0.18" d="M252.6 119.9L251.8 116.3H250.7C246.9 120.6 243.2 124.9 239.4 129.2H244.5L252.6 119.9Z" fill="white"/>
<path d="M272 110.5C272.3 109 275.5 110.6 275.5 110.6C275.5 110.6 275.2 114.1 270.6 118C267.6 120.6 263.8 120.8 263.8 120.8C263.8 120.8 271 115.2 272 110.5Z" fill="#F47500"/>
<path d="M251.4 120C251.7 120.2 252.1 120.3 252.5 120.4C252.1 120.4 252.1 120.6 251.7 120.7C251.5 120.7 251 120.1 251 120C251.1 119.7 251.2 119.9 251.4 120Z" fill="#FF9873"/>
<path d="M248.7 121C248.9 120.9 249.5 120.8 249.7 120.8C249.8 120.8 250.9 120.6 251.5 120.5C251.9 120.5 252.4 120.5 252.8 120.5C252.8 120.5 253.2 121.9 253.3 122.3C252.6 122.4 250.3 122.4 250.2 122.4C249.3 122.6 249 122.3 249.2 122.1C249.2 122 248.6 122 248.7 121.7C248.7 121.7 248.5 121.6 248.5 121.4C248.4 121.3 248.6 121 248.7 121Z" fill="#FF9873"/>
<path d="M263.8 116.7C263.9 116.5 264.1 116.3 264.3 116.1C265.3 114.9 266.6 112.8 267.9 110.9C269.2 108.9 270.3 107.1 271.1 106.3C271.2 106.2 271.4 106.1 271.6 106.1C272.4 106.2 275.3 109 275.7 109.7C276.8 111.8 268.9 118.4 266.6 119.9C264.4 121.3 256.5 122.7 253.1 122.9L252.8 120.1C254.2 120 257.7 118.9 260.5 117.9C261.6 117.3 262.8 116.9 263.8 116.7Z" fill="#FF8D00"/>
<path d="M169 176C169.1 176.4 168.7 177 168.2 177C167.7 177 167.2 176.8 167.1 176.4L160.6 155.1L166.3 154.8L169 176Z" fill="#192344"/>
<path d="M155.4 139.3L163.3 138.7L165.1 159.2L157.2 159.8C152.3 160.2 147.9 155.9 147.4 150.2C146.9 144.5 150.4 139.6 155.4 139.3Z" fill="#E50A43"/>
<path d="M163 138.7C163.1 138.7 163.2 138.7 163.3 138.7L191.4 127.1L194.9 166.4L165.1 159.2C165.1 159.2 165.1 159.2 165 159.2C162.1 159.5 159.2 155.1 158.7 149.4C158.1 143.7 160 138.9 163 138.7Z" fill="#FF1D52"/>
<path d="M192.4 126.9C197.8 126.4 203 134.9 204.1 145.9C205.2 156.8 201.8 166.1 196.4 166.6C193.3 166.9 190.2 164.1 187.9 159.5C186.8 157.3 186 154.8 185.4 152C185.1 150.6 184.9 149.1 184.7 147.6C184.6 146.1 184.5 144.6 184.5 143.2C184.5 139.9 185 136.8 185.8 134.3C187.1 129.9 189.5 127.1 192.4 126.9Z" fill="#E50A43"/>
<path d="M189.9 130.9C194.2 130.5 198.4 137.3 199.2 146C200.1 154.7 197.3 162.1 193.1 162.5C191.2 162.7 189.4 161.5 187.9 159.4C186.8 157.2 186 154.7 185.4 151.9C185.1 150.5 184.9 149 184.7 147.5C184.6 146 184.5 144.5 184.5 143.1C184.5 139.8 185 136.7 185.8 134.2C186.8 132.3 188.3 131.1 189.9 130.9Z" fill="#192344"/>
<path d="M189.7 142.3L184.6 141.2C184.6 141.2 183.9 146.9 186.1 154.7L190.7 152.4L189.7 142.3Z" fill="#E50A43"/>
<path d="M189.5 142.3C190.9 142.2 192.2 144.3 192.5 147.1C192.8 149.9 191.9 152.2 190.6 152.3C190 152.4 189.4 152 188.9 151.3C188.6 150.6 188.3 149.8 188.1 148.9C188 148.5 187.9 148 187.9 147.5C187.9 147 187.8 146.6 187.8 146.1C187.8 145 188 144.1 188.2 143.3C188.5 142.8 189 142.4 189.5 142.3Z" fill="#FF1D52"/>
<path d="M108.8 110.4C109.4 109.3 110 108.9 109.4 106C107.6 96.5 116.2 98.4 116.7 100.9C116.8 101.5 116.6 102 115.9 101.5C114.8 100.6 111.5 100.5 114.8 105.7C115.7 107.1 118.1 108.5 114.6 112.4C111.4 115.9 114.8 116 114.9 117.2C115.2 120.2 105.9 115.9 108.8 110.4Z" fill="#FF8D00"/>
<path d="M128.9 130.5C129.2 132.5 124.9 181.9 124.9 181.9C124.9 182 123.6 182.8 122.6 182C122.6 182 121.8 170.6 120.3 159.9C119 150.6 119.2 141.8 118.4 141.2V131.4C122.1 131.6 127.6 131.1 128.9 130.5Z" fill="#0B1028"/>
<path d="M122.3 180.9C122.6 181 123.7 181 124 180.9C124 180.7 124 180.5 124.1 180.3C124.4 180.2 124.9 179.9 125.1 179.8C125 180.3 124.9 183.1 125.4 183.5C126.1 184 127.3 184 127.5 184C128.5 184 128.7 184.6 128.7 184.8C128.7 185.2 128.5 185.3 128.2 185.3C127 185.3 124.2 185.3 123.4 185.3C122.9 185.3 122.4 185.4 121.9 184.9C121.7 184.7 121.7 184.4 121.8 184.1C122 183.8 122.3 181.7 122.3 180.9Z" fill="#FF8D00"/>
<path d="M142.8 97.9C143 97.8 143.4 98.6 143.4 98.8C143.2 99.2 143.1 99.3 142.9 99.8C142.9 99.4 142.8 98.8 142.8 98.4C142.6 98.1 142.5 97.9 142.8 97.9Z" fill="#FF9873"/>
<path d="M123.1 108.9C125.3 108.8 132.3 110.4 135.8 110.5C140.1 110.7 138.4 113.6 137.1 114C133.6 115 123.7 116 123 114.3C122.7 113.5 122.7 108.9 123.1 108.9Z" fill="#FF9873"/>
<path d="M123.1 108.9C124.7 108.8 128.7 109.5 132.1 109.7C132.2 110.8 132.3 112.4 132.2 113.6C132.2 114.1 132.2 115.5 132.1 115.9C128.1 116.4 123.5 115.5 123 114.3C122.7 113.5 122.7 108.9 123.1 108.9Z" fill="#3011CC"/>
<path d="M135.5 111.5C136.6 109.4 142 102.1 142.7 99.7C143.4 100.1 144 100.4 144.5 100.5C143.1 104.4 138.7 113.9 137 113.8C135.5 113.7 135.2 112.6 135.3 111.9C135.4 111.8 135.5 111.6 135.5 111.5Z" fill="#FF9873"/>
<path d="M145.9 98C145.4 99 144.8 100.2 144.6 100.6C143.9 100.7 142.8 99.8 142.8 99.8C143.1 99.3 143.3 98.6 143.5 98.1C143.7 97.6 144.4 96.5 144.5 96.5C144.6 96.3 145 95.7 145.1 95.6C145.3 95.4 145.5 95.4 145.7 95.5C145.8 95.6 145.9 95.7 145.6 96.3C145.2 96.9 145 97.3 145 97.3C145 97.3 145.4 97.2 145.4 97.5C145.4 97.5 145.8 97.4 145.8 97.8C145.8 97.7 146 97.7 145.9 98Z" fill="#FF9873"/>
<path d="M110.2 130.5C111.4 131 120.3 132.7 124.1 132.5C124.1 132.5 123.9 137.5 123.1 140.5C121.9 145.2 120.2 153.1 119.4 157.2C117.3 167.7 113.5 181.6 113.5 181.6C112.4 182.2 111.2 181.3 111.1 181.2C111.1 181.2 111.2 162.2 112 157.8C112.8 154 110.1 131.6 110.2 130.5Z" fill="#192344"/>
<path d="M129.1 134.1C129.1 134.1 130.3 139.9 129.7 140.4C128.4 141.5 123.5 140.5 119.8 140C116.1 139.5 109.2 140.3 109 139.5C108.5 137.4 109.4 132.9 109.4 132.9L129.1 134.1Z" fill="#3011CC"/>
<path d="M119.5 102.9C119.8 103.1 122.5 104.6 123.3 104.5C123.3 104.7 122.8 107.1 123.3 108.3C122.8 110.2 119.9 109.3 119.1 107.4C119.3 106.8 119.6 103.9 119.5 102.9Z" fill="#FF9873"/>
<path d="M119.2 99.8C120.4 99 121.7 98.6 122.7 99.6C123 100 125.1 103.8 123.4 105.6C122.7 106.3 120.2 105.9 119.6 104.9L118.7 103.6C117.8 102.3 117.9 100.7 119.2 99.8Z" fill="#FF9873"/>
<path d="M111.5 113.2C112.4 110.5 113.4 109 115.8 108.4C116.6 108.2 119 107.4 119 107.4C119 107.4 120.7 109.1 121.8 109.2C122.6 109.3 123.2 108.3 123.2 108.3C123.2 108.3 126 109.3 126.5 109.6C128.5 110.9 128.5 113 128.6 114.8C129.7 132.7 130.5 135.3 130 136.3C128.8 138.7 108.6 137.1 109 134.1C110.2 124.1 111.2 114 111.5 113.2Z" fill="#4619D9"/>
<path d="M116.1 100.9C116.9 98.2 120.7 98.3 120.7 98.3C123.1 97.4 124.4 100.8 123.7 101.8C122.8 99.3 120.8 99.4 120.8 99.4C117.9 101.1 118.9 105.1 119.7 105.8C119.7 105.9 114.8 104.9 116.1 100.9Z" fill="#FF8D00"/>
<path d="M118.4 103C118.5 102.9 118.8 102.8 119.1 102.9C119.2 103.4 119.4 104.3 119.4 104.7C119 104.8 118.4 104.5 118.2 104.2C118 103.9 118.1 103.2 118.4 103Z" fill="#FF9873"/>
<path d="M115.6 100.1C115.7 99.9 115.9 99.8 116 99.7C116.4 99.5 116.8 99.6 116.8 99.6C116.1 100.4 115.9 101.6 115.9 101.6C115.4 101.4 115.2 100.9 115.6 100.1Z" fill="#4619D9"/>
<path d="M111.2 180.8C111.5 180.9 112.6 181 112.9 180.9C112.9 180.7 112.9 180.5 113 180.3C113.3 180.2 113.8 179.9 114.1 179.9C114 180.4 113.7 183.2 114.2 183.6C114.8 184.1 116.1 184.2 116.3 184.2C117.3 184.3 117.5 184.8 117.5 185.1C117.5 185.5 117.2 185.6 117 185.6C115.8 185.5 113 185.4 112.2 185.3C111.7 185.3 111.2 185.3 110.8 184.8C110.7 184.6 110.7 184.3 110.8 184C110.7 183.6 111.1 181.6 111.2 180.8Z" fill="#FF8D00"/>
<path d="M119.3 113.3L115.4 129.2C115.4 129.4 115.4 129.9 116.1 129.9L122.9 129.8L124.1 112.6H120.4C119.8 112.5 119.4 112.8 119.3 113.3Z" fill="#8358FF"/>
<path d="M130.1 112.5H120.7C120.6 112.5 120.4 112.6 120.4 112.7L116.3 129.4C116.2 129.6 116.4 129.8 116.6 129.8H125.1C125.8 129.8 126.5 129.3 126.7 128.6L130.6 112.8C130.5 112.7 130.3 112.5 130.1 112.5Z" fill="#9872FF"/>
<path d="M124.5 120.5C124.7 120.4 124.9 120.2 125 120.5C125.1 120.7 124.4 121.2 124.2 121.2C123.7 121.1 123.8 120.8 123.3 120.8C123.7 120.8 124.1 120.7 124.5 120.5Z" fill="#FF9873"/>
<path d="M123 120.8C123.4 120.8 123.9 120.9 124.4 121C125 121.1 126.2 121.5 126.2 121.5C126.4 121.6 126.4 121.6 126.6 121.8C126.7 121.9 126.9 122.2 126.9 122.4C126.9 122.6 126.7 122.7 126.7 122.7C126.7 123 126.1 123 126.1 123C126.2 123.3 126.5 123.6 125.6 123.3C125.5 123.3 123.1 122.9 122.3 122.8C122.3 122.2 122.9 120.8 123 120.8Z" fill="#FF9873"/>
<path d="M118.1 112.6C117.2 114.6 113 120.1 111.3 123.1C109.2 126.8 107.4 124 107.6 122.7C108.3 119.2 111.9 110.5 113.4 110.1C114.1 109.8 118.2 112.2 118.1 112.6Z" fill="#FF9873"/>
<path d="M118.7 112.7C118.6 114.3 115.6 117.4 113.9 120.4C112.3 120.2 109.9 119.1 108.4 117.6C109.8 113.8 111.8 110.8 112.8 110C115.3 108.1 118.8 110.7 118.7 112.7Z" fill="#4619D9"/>
<path d="M108.8 122.1C109 122 109.1 122 109.2 121.9C111.6 121.5 120.6 121.6 123 120.8C123.1 121.6 123.2 122.3 123.4 122.8C119.4 124 109.2 126 108.3 124.6C107.4 123.3 108.1 122.4 108.8 122.1Z" fill="#FF9873"/>
<path opacity="0.15" d="M312 185.3C312 186.2 261.6 187 199.5 187C137.4 187 87 186.2 87 185.3C87 184.4 137.4 183.6 199.5 183.6C261.6 183.7 312 184.4 312 185.3Z" fill="#0B1028"/>
<defs>
<linearGradient id="paint0_linear" x1="31.7806" y1="101.652" x2="315.087" y2="101.652" gradientUnits="userSpaceOnUse">
<stop stop-color="#9671FF"/>
<stop offset="1" stop-color="#7A4FFF"/>
</linearGradient>
</defs>
</svg>
