<svg width="342" height="155" viewBox="0 0 342 155" fill="none" xmlns="http://www.w3.org/2000/svg">
<path d="M0 17.8219C0 17.8219 31.9 75.7218 58.7 70.5218C85.5 65.3218 118.7 1.32181 158.2 0.0218137C197.7 -1.27819 231.7 56.0218 257.3 39.6218C282.7 23.3218 323.7 1.32184 342 36.4218V135.922H0V17.8219Z" fill="#F1EEFF"/>
<path d="M0 81.8219C0 81.8219 31.9 94.5219 58.7 89.3219C85.5 84.1219 119.4 38.7219 158.9 37.4219C198.4 36.1219 231.8 74.8219 257.3 58.5219C282.7 42.2219 323.7 20.2219 342 55.3219V154.822H0V81.8219Z" fill="url(#paint0_linear)"/>
<path d="M127.1 41.6219C128.1 41.4219 128.6 41.2219 128.6 41.2219C128.8 41.1219 128.9 40.9219 128.9 40.7219C128.8 40.5219 128.6 40.3219 128.4 40.4219C128.4 40.4219 127.9 40.5219 126.9 40.8219C126.7 40.8219 126.6 41.1219 126.6 41.3219C126.7 41.6219 126.9 41.7219 127.1 41.6219Z" fill="#FF8D00"/>
<path d="M70.4 67.1219C70.2 67.1219 70 67.0219 70 66.7219C70 66.5219 70.1 66.3219 70.4 66.3219C71.4 66.2219 72.4 66.1219 73.4 65.9219C73.6 65.9219 73.8 66.0219 73.8 66.2219C73.8 66.4219 73.7 66.6219 73.5 66.7219C72.4 66.9219 71.4 67.0219 70.4 67.1219ZM76 65.7219C75.9 65.5219 76.1 65.3219 76.3 65.2219C77.2 64.9219 78.2 64.6219 79.2 64.2219C79.4 64.1219 79.6 64.2219 79.7 64.4219C79.8 64.6219 79.7 64.8219 79.5 64.9219C78.5 65.3219 77.5 65.6219 76.6 65.9219C76.2 66.0219 76 65.9219 76 65.7219ZM81.7 63.5218C81.6 63.3218 81.7 63.1218 81.9 63.0218C82.8 62.5218 83.7 62.1218 84.6 61.5218C84.8 61.4218 85 61.4219 85.1 61.6219C85.2 61.8219 85.2 62.0219 85 62.1219C84.1 62.6219 83.2 63.1219 82.3 63.6219H82.2C81.9 63.7219 81.8 63.6218 81.7 63.5218ZM87 60.3219C86.9 60.1219 86.9 59.9219 87.1 59.8219C87.9 59.2219 88.7 58.6218 89.5 58.0218C89.7 57.9218 89.9 57.9219 90 58.1219C90.1 58.3219 90.1 58.5219 89.9 58.6219C89.1 59.3219 88.3 59.9218 87.4 60.5218C87.4 60.5218 87.3 60.6219 87.2 60.6219C87.2 60.5219 87.1 60.5219 87 60.3219ZM91.8 56.5218C91.7 56.3218 91.7 56.1218 91.8 56.0218C92 55.8218 92.3 55.6219 92.5 55.3219C93 54.8219 93.5 54.3219 93.9 53.9219C94 53.7219 94.3 53.7219 94.4 53.9219C94.6 54.0219 94.6 54.3219 94.4 54.4219C93.9 54.9219 93.4 55.4219 92.9 55.9219C92.7 56.1219 92.4 56.4219 92.2 56.6219C92.1 56.6219 92.1 56.7219 92 56.7219C92 56.7219 91.9 56.6218 91.8 56.5218ZM96 52.1219C95.8 52.0219 95.8 51.7219 95.9 51.6219C96.5 50.8219 97.1 50.0219 97.7 49.1219C97.8 48.9219 98.1 48.9218 98.2 49.0218C98.4 49.1218 98.4 49.4218 98.3 49.5218C97.8 50.3218 97.1 51.2218 96.5 52.0218C96.4 52.1218 96.4 52.1219 96.3 52.1219C96.2 52.2219 96.1 52.2219 96 52.1219ZM99.4 47.0218C99.2 46.9218 99.1 46.7218 99.2 46.5218C99.3 46.3218 99.4 46.0219 99.5 45.8219C98.5 45.8219 97.6 45.8219 96.7 45.8219C96.5 45.8219 96.3 45.6219 96.3 45.4219C96.3 45.2219 96.5 45.0218 96.7 45.0218C97.7 45.0218 98.7 45.0218 99.8 45.0218H99.9C100.1 44.6218 100.2 44.1219 100.4 43.7219C100.5 43.5219 100.7 43.4218 100.9 43.5218C101.1 43.6218 101.2 43.8218 101.1 44.0218C100.8 45.0218 100.4 45.9219 99.9 46.9219C99.8 47.0219 99.7 47.1219 99.6 47.1219C99.6 47.1219 99.5 47.1218 99.4 47.0218ZM118.1 43.5218C117.1 43.7218 116.1 43.9218 115.1 44.0218C114.9 44.0218 114.7 43.9219 114.7 43.7219C114.7 43.5219 114.8 43.3219 115 43.3219C116 43.1219 117 42.9219 118 42.8219C118.2 42.8219 118.4 42.9219 118.4 43.1219C118.5 43.3219 118.3 43.5218 118.1 43.5218ZM120.7 42.6219C120.7 42.4219 120.8 42.2219 121 42.1219C122.1 41.9219 123.1 41.7218 124 41.5218C124.2 41.5218 124.4 41.6219 124.5 41.8219C124.5 42.0219 124.4 42.2219 124.2 42.3219C123.3 42.5219 122.3 42.7219 121.2 42.9219C120.9 43.0219 120.7 42.8219 120.7 42.6219ZM112 44.5218C111 44.7218 110 44.8219 109 44.9219C108.8 44.9219 108.6 44.8219 108.6 44.6219C108.6 44.4219 108.7 44.2219 108.9 44.2219C109.9 44.1219 110.9 43.9219 111.9 43.8219C112.1 43.8219 112.3 43.9219 112.3 44.1219C112.4 44.3219 112.3 44.5218 112 44.5218C112.1 44.5218 112.1 44.5218 112 44.5218ZM105.9 45.3219C104.9 45.4219 103.8 45.5219 102.8 45.6219C102.6 45.6219 102.4 45.5219 102.4 45.2219C102.4 45.0219 102.5 44.8219 102.8 44.8219C103.8 44.7219 104.8 44.6218 105.8 44.5218C106 44.5218 106.2 44.6219 106.2 44.8219C106.3 45.1219 106.2 45.3219 105.9 45.3219C106 45.3219 106 45.3219 105.9 45.3219ZM93.6 45.7219C92.5 45.6219 91.5 45.5219 90.5 45.3219C90.3 45.3219 90.2 45.1219 90.2 44.8219C90.2 44.6219 90.4 44.5218 90.7 44.5218C91.6 44.7218 92.6 44.8219 93.7 44.9219C93.9 44.9219 94.1 45.1219 94.1 45.3219C94.1 45.5219 94 45.6219 93.8 45.6219C93.7 45.7219 93.7 45.7219 93.6 45.7219ZM87.5 44.4219C86.4 43.9219 85.5 43.4219 84.8 42.7219C84.7 42.5219 84.7 42.3219 84.8 42.2219C85 42.1219 85.2 42.1219 85.3 42.2219C85.9 42.8219 86.7 43.3219 87.7 43.7219C87.9 43.8219 88 44.0219 87.9 44.2219C87.8 44.3219 87.7 44.4219 87.6 44.4219C87.7 44.5219 87.6 44.5219 87.5 44.4219ZM101.4 41.2219C101.2 41.2219 101 41.0219 101.1 40.8219C101.3 39.8219 101.3 38.8219 101.3 37.8219C101.3 37.6219 101.5 37.4219 101.7 37.4219C101.9 37.4219 102.1 37.6219 102.1 37.8219C102.1 38.8219 102.1 39.9219 101.9 40.9219C101.9 41.1219 101.7 41.2219 101.6 41.2219C101.5 41.3219 101.4 41.3219 101.4 41.2219ZM83.9 40.1219C83.7 40.1219 83.5 40.0219 83.5 39.7219C83.4 38.8219 83.6 37.7218 84 36.5218C84.1 36.3218 84.3 36.2219 84.5 36.3219C84.7 36.4219 84.8 36.6219 84.7 36.8219C84.3 37.8219 84.2 38.8219 84.2 39.6219C84.3 39.9219 84.1 40.1219 83.9 40.1219ZM100.9 34.9219C100.6 33.9219 100.3 33.0219 99.8 32.2219C99.7 32.0219 99.8 31.8219 99.9 31.7219C100.1 31.6219 100.3 31.7219 100.4 31.8219C100.9 32.7219 101.3 33.7219 101.6 34.7219C101.7 34.9219 101.5 35.1219 101.3 35.2219C101.1 35.2219 100.9 35.1219 100.9 34.9219ZM85.5 34.3219C85.3 34.2219 85.3 34.0219 85.4 33.8219C85.5 33.6219 85.6 33.5219 85.7 33.3219C86.2 32.5219 86.7 31.8219 87.2 31.2219C87.3 31.0219 87.6 31.0219 87.7 31.2219C87.9 31.3219 87.9 31.6219 87.7 31.7219C87.2 32.3219 86.7 33.0219 86.2 33.7219C86.1 33.8219 86 34.0219 85.9 34.1219C85.8 34.2219 85.7 34.3219 85.6 34.3219C85.7 34.4219 85.6 34.4219 85.5 34.3219ZM98 29.9219C97.2 29.2219 96.4 28.8219 95.5 28.6219C95.3 28.5219 95.2 28.3219 95.2 28.1219C95.3 27.9219 95.5 27.8219 95.7 27.8219C96.7 28.1219 97.7 28.6219 98.5 29.3219C98.7 29.4219 98.7 29.7219 98.5 29.8219C98.4 29.9219 98.4 29.9219 98.3 29.9219C98.2 30.0219 98.1 29.9219 98 29.9219ZM89.4 29.6219C89.3 29.4219 89.3 29.2219 89.5 29.1219C90.4 28.4219 91.4 28.0219 92.4 27.8219C92.6 27.7219 92.8 27.9219 92.9 28.1219C92.9 28.3219 92.8 28.5219 92.6 28.6219C91.7 28.8219 90.8 29.2219 90 29.8219C90 29.8219 89.9 29.9219 89.8 29.9219C89.7 29.8219 89.5 29.8219 89.4 29.6219Z" fill="#FF8D00"/>
<path d="M67.3 67.1219C67.5 67.1219 67.6 66.9219 67.6 66.8219C67.6 66.6219 67.5 66.4219 67.2 66.4219C66.3 66.3219 65.7 66.2219 65.7 66.2219C65.5 66.1219 65.3 66.3218 65.2 66.5218C65.1 66.7218 65.3 66.9218 65.5 67.0218C65.5 67.0218 66.1 67.1219 67.1 67.2219C67.2 67.1219 67.2 67.1219 67.3 67.1219Z" fill="#FF8D00"/>
<path d="M130.5 51.1219L126.3 43.5219L126.2 43.4219L132.1 37.4219L124.8 41.7219L118.2 36.3219L138.6 32.1219L130.5 51.1219Z" fill="#FF8D00"/>
<path d="M126.3 43.5219L124.8 41.7219L137.2 33.2219L126.2 43.4219L126.3 43.5219Z" fill="#F47500"/>
<path d="M30.6 38.8219C29.3 39.3219 28.1 38.1219 26.8 38.0219C24.7 38.0219 22.3 39.1219 21.6 41.2219C21.4 41.8219 21.4 42.7219 21.1 43.2219C20.5 44.0219 19.3 44.5219 19.1 45.6219C18.7 48.1219 20.8 48.8219 20.6 51.3219C20.5 53.0219 19.4 53.5219 18.7 55.0219C18 56.5219 18.1 58.0219 19.3 59.1219C19.8 59.6219 21.4 60.3219 20.6 61.1219C20.4 61.3219 20.2 61.4219 20 61.6219C18.2 62.7219 16.8 64.6219 16.7 66.7219C16.3 72.1219 22 74.2219 26.5 74.1219C30.1 74.1219 35.6 72.7219 38.3 70.3219C42.2 66.7219 44.7 61.0219 42.3 55.4219C41.7 54.0219 40.1 53.0219 40.1 51.5219C40.1 50.5219 40.4 49.5219 40.5 48.5219C40.6 47.4219 40.4 46.3219 40 45.3219C39.7 44.7219 39.4 44.2219 38.9 43.8219C38 43.0219 36.9 43.3219 35.9 42.8219C35.2 42.5219 34.7 41.9219 34.4 41.2219C34.1 40.5219 34.2 39.7219 33.7 39.0219C32.6 38.2219 31.4 38.4219 30.6 38.8219Z" fill="#192344"/>
<path d="M24.8 84.4219C28.1 82.6219 49.5 79.8219 58.7 80.2219C62.6 80.4219 63.1 85.2219 59.9 87.0219C51.3 92.0219 39.7 94.0219 31.6 94.6219C24.4 95.1219 21.3 86.3219 24.8 84.4219Z" fill="#00C675"/>
<path d="M61 76.6219C61.2 76.5219 61.4 76.3219 61.5 76.6219C61.6 76.8219 60.8 77.4219 60.6 77.4219C60.1 77.3219 60.1 77.0218 59.6 77.0218C60.1 76.9218 60.6 76.8219 61 76.6219Z" fill="#FFA493"/>
<path d="M60.9 77.1219C61.5 77.2219 62.9 77.6219 63 77.7219C63.3 77.8219 64 78.0219 64.2 78.1219C64.3 78.2219 64.5 78.6219 64.5 78.7219C64.5 78.9219 64.2 79.0219 64.2 79.0219C64.3 79.3219 63.5 79.3219 63.5 79.4219C63.6 79.7219 63.3 80.0219 62.2 79.6219C62.1 79.6219 59.3 79.2219 58.5 79.1219C58.6 78.5219 59.3 76.9219 59.3 76.9219C59.8 77.0219 60.4 77.0219 60.9 77.1219Z" fill="#FFA493"/>
<path d="M44.5 70.9219C44.7 70.9219 44.9 70.9219 45 71.0219C47.6 71.8219 56.6 76.5219 59.5 77.0219C59.2 77.9219 59 78.6219 58.9 79.2219C54.3 78.4219 42.9 75.1219 42.7 73.3219C42.5 71.5219 43.7 71.0219 44.5 70.9219Z" fill="#FFA493"/>
<path d="M38.6001 57.3219C38.8001 57.3219 39.0001 57.4219 39.1001 57.5219C39.9001 58.5219 41 60.9219 42.2 63.4219C43.4 65.9219 44.6 68.5219 45.7 70.1219C45.9 70.4219 46 70.6219 46.2 70.9219C47.2 71.4219 48.6001 72.0219 50.1001 72.7219C53.3001 74.2219 57.3 76.1219 58.9 76.4219L58.1001 79.6219C54.1001 78.9219 45 76.2219 42.7 74.2219C40.2 72.2219 31.9 63.3219 33.5 61.0219C33.8 60.1219 37.7001 57.3219 38.6001 57.3219Z" fill="#3011CC"/>
<path d="M85.2 96.9219C84.7 96.6219 84.2 96.3219 84.2 96.3219L84.7 94.0219C84.7 94.0219 85.6 94.1219 86 94.1219C86.9 94.0219 88.8 90.7219 89.7 91.2219C90.1 91.4219 89.8 92.7219 89.4 93.5219C89 94.3219 88.2 95.7219 88 96.2219C87.7 96.8219 87.3 97.9219 87 98.0219C86.1 98.3219 85.7 97.2219 85.2 96.9219Z" fill="#0B1028"/>
<path d="M84.6 94.0219C84.6 94.0219 85.3 94.2219 86 94.2219C86 94.2219 86.3 94.1219 86.4 94.6219C86.4 95.0219 85.2 96.9219 85.2 96.9219C84.7 96.6219 83.7 96.1219 83.7 96.1219L84.6 94.0219Z" fill="#FF9873"/>
<path d="M25.3 81.2219C29 80.7219 50.0001 85.9219 58.4001 89.6219C62.0001 91.2219 60.5001 95.0219 56.9001 95.6219C47.1001 97.1219 35.8 97.5219 27.7 96.5219C19.7 95.6219 21.3 81.8219 25.3 81.2219Z" fill="#00E18E"/>
<path d="M57.4 88.8219C73.3 91.7219 85.1 93.8219 85.1 93.8219C85.5 94.6219 85.3 96.0218 84.9 97.0218C84.9 97.0218 68.6 97.3219 54.4 97.3219C45.1 97.3219 50.9 87.6219 57.4 88.8219Z" fill="#00E18E"/>
<path d="M42.4 79.8219L44.3 84.5219C44.3 84.5219 43.8 85.3219 41.9 85.5219L40.8 84.0219L40.9 86.1219C31.7 90.9219 22.3 88.9219 22.3 88.9219C21.3 85.8219 21.1 80.7219 21.1 80.7219L42.4 79.8219Z" fill="white"/>
<path d="M29 49.4219C29.3 49.6219 31.3 50.7219 32.3 50.8219C32.3 51.0219 32.5 54.3219 33.3 54.8219C33.2 56.1219 29.7 56.5219 28.5 54.5219C28.9 53.8219 29 50.6219 29 49.4219Z" fill="#FF9873"/>
<path d="M25.1 55.7219C26 55.4219 28.5 54.4219 28.5 54.4219C28.5 54.4219 30.3 55.8219 31.9 55.5219C32.7 55.3219 33.3 54.7219 33.3 54.7219C33.3 54.7219 36.5 55.3219 37.1 55.5219C39.4 56.5219 40.1 58.6219 40 60.4219C39.7 66.6219 44.4 80.1219 42.7 81.2219C40.4 82.6219 26.1 88.4219 21.1 85.2219C21.1 85.2219 20.2 67.6219 21.2 61.5219C21.5 59.2219 22.5 56.6219 25.1 55.7219Z" fill="#4619D9"/>
<path d="M28.4 48.9219C28 47.3219 28.4 45.3219 30 44.6219C31.5 44.0219 32.9 44.2218 33.7 45.5218C34 46.0218 35.3 51.3218 33.2 52.2218C32.1 52.6218 29.2 51.6219 28.9 50.4219C28.8 50.5219 28.6 49.4219 28.4 48.9219Z" fill="#FF9873"/>
<path d="M84 99.2219C83.6 98.8219 83.3 98.3219 83.3 98.3219L84.6 96.3219C84.6 96.3219 85.4 96.7219 85.8 96.9219C86.7 97.2219 89.6 94.7219 90.3 95.4219C90.6 95.8219 89.9 96.9219 89.2 97.5219C88.6 98.1219 87.3 99.2219 86.9 99.5219C86.4 99.9219 85.7 100.922 85.3 100.822C84.4 100.822 84.4 99.6219 84 99.2219Z" fill="#0B1028"/>
<path d="M84.5 96.2219C84.5 96.2219 85.1 96.7219 85.7 96.9219C85.7 96.9219 86 96.9219 85.9 97.4219C85.8 97.8219 83.9 99.2219 83.9 99.2219C83.5 98.8219 82.8 98.0219 82.8 98.0219L84.5 96.2219Z" fill="#FF9873"/>
<path d="M61.1 81.0219C74.7 89.7219 84.9 96.1219 84.9 96.1219C84.9 97.0219 84.1 98.3219 83.1 98.9219C83.1 98.9219 71.8 94.7219 58.6 89.3219C50 85.8219 55.6 77.5219 61.1 81.0219Z" fill="#00C675"/>
<path d="M33 81.4219C33 81.5219 33 81.5219 33 81.4219C33 81.8219 33.3 82.1219 33.7 82.1219H50.6C51 82.1219 51.3 81.8219 51.3 81.4219H33Z" fill="#8358FF"/>
<path d="M53.2 66.6219L49.7 81.3219C49.6 81.5219 49.7 82.2219 50.6 82.2219L64.9 82.0219V65.6219H54.5C53.9 65.6219 53.3 66.0219 53.2 66.6219Z" fill="#8358FF"/>
<path d="M72.6001 65.6219H54.3C54.1 65.6219 53.9 65.7219 53.9 65.9219L50.1001 81.6219C50.0001 81.9219 50.2 82.1219 50.5 82.1219H67.5C68.4 82.1219 69.3 81.5219 69.5 80.6219L72.9 66.1219C73.1 65.9219 72.9001 65.6219 72.6001 65.6219Z" fill="#9872FF"/>
<path opacity="0.2" d="M55.9 81.3219H51.2L52.2 77.0219L55.9 81.3219Z" fill="white"/>
<path opacity="0.2" d="M53.6 70.4219L54.5 66.2219H55.8C60.2 71.2219 64.5 76.2219 68.9 81.3219H63L53.6 70.4219Z" fill="white"/>
<path d="M24.7 61.5219C24.9 61.1219 25 60.8219 25 60.4219C26.7 63.2219 29.3 65.2219 31.5 67.9219C34.5 71.5219 38 77.0219 42.2 79.2219C38.1 79.2219 34 78.5219 31.9 77.2219C28.9 75.2219 21.4 66.2219 24.7 61.5219Z" fill="#3011CC"/>
<path d="M50.9 78.1219C51 78.3219 50.2 78.8219 50 78.8219C49.5 78.7219 49.6 78.4219 49.1 78.3219C49.5 78.3219 50 78.1218 50.4 78.0218C50.6 78.0218 50.8 77.8219 50.9 78.1219Z" fill="#FF9873"/>
<path d="M48.6 78.4219C49.1 78.4219 49.6 78.5219 50.1 78.6219C50.7 78.7219 52.1 79.2219 52.1 79.2219C52.4 79.3219 53.1 79.5219 53.2 79.6219C53.3 79.7219 53.5 80.1219 53.5 80.2219C53.5 80.4219 53.2 80.5219 53.2 80.5219C53.3 80.8219 52.5 80.8219 52.5 80.9219C52.6 81.2219 52.3 81.4219 51.2 81.1219C51.1 81.1219 48.4 80.7219 47.5 80.5219C47.9 79.9219 48.6 78.4219 48.6 78.4219Z" fill="#FF9873"/>
<path d="M23.8 62.3219C24.3 61.6219 28.5 58.6218 28.8 59.0218C30.3 61.0218 33.2 68.4219 35.3 71.7219C37.8 75.7219 34.1 76.1219 33 75.1219C29.9 72.5219 22.7 64.0219 23.8 62.3219Z" fill="#FF9873"/>
<path d="M34.2 72.1219C34.4 72.1219 34.6 72.1219 34.7 72.2219C37.2 73.1219 46 77.9219 48.8 78.4219C48.5 79.2219 48.2 80.0219 48.2 80.6219C43.7 79.7219 32.6 76.2219 32.4 74.3219C32.2 72.6219 33.4 72.1219 34.2 72.1219Z" fill="#FF9873"/>
<path d="M23.2 61.9219C23.7 61.1219 27.6 58.4219 28.5 58.5219C28.7 58.5219 28.9 58.6219 29 58.8219C29.7 59.8219 34.2001 69.7219 35.1001 71.3219C35.3001 71.6219 35.4 71.8219 35.5 72.1219C36.5 72.6219 37.9 73.3219 39.3 74.0219C42.4 75.6219 46.3 77.5219 47.8 77.8219L46.9 81.0219C43 80.2219 34.1 77.3219 31.8 75.3219C29.5 73.1219 21.6 64.2219 23.2 61.9219Z" fill="#4619D9"/>
<defs>
<linearGradient id="paint0_linear" x1="-0.0226" y1="95.7584" x2="341.96" y2="95.7584" gradientUnits="userSpaceOnUse">
<stop stop-color="#9671FF"/>
<stop offset="1" stop-color="#7A4FFF"/>
</linearGradient>
</defs>
</svg>
